<svg id="facebook" xmlns="http://www.w3.org/2000/svg" width="50" height="50" viewBox="0 0 50 50">
  <rect id="Rectangle_14" data-name="Rectangle 14" width="50" height="50" fill="#3b3f40"/>
  <path id="Path_4" data-name="Path 4" d="M21.251,33.392a14,14,0,1,0-3.5,0V23h-3.5V19.5h3.5V16.605c0-2.34.244-3.189.7-4.044a4.769,4.769,0,0,1,1.984-1.985,6.951,6.951,0,0,1,2.952-.667,11.354,11.354,0,0,1,2.237.141v3.325h-.875a6.343,6.343,0,0,0-2.664.288,1.274,1.274,0,0,0-.549.549c-.212.4-.288.789-.288,2.394V19.5h4.375L24.751,23h-3.5ZM19.5,37A17.5,17.5,0,1,1,37,19.5,17.5,17.5,0,0,1,19.5,37Z" transform="translate(5.999 6)" fill="#fff"/>
</svg>
