<svg id="instagram" xmlns="http://www.w3.org/2000/svg" width="50" height="50" viewBox="0 0 50 50">
  <rect id="Rectangle_14" data-name="Rectangle 14" width="50" height="50" fill="#3b3f40"/>
  <path id="Path_3" data-name="Path 3" d="M19.5,14.25a5.25,5.25,0,1,0,5.25,5.25A5.249,5.249,0,0,0,19.5,14.25Zm0-3.5a8.75,8.75,0,1,1-8.75,8.75A8.749,8.749,0,0,1,19.5,10.75Zm11.375-.439a2.187,2.187,0,1,1-2.187-2.186A2.189,2.189,0,0,1,30.876,10.311ZM19.5,5.5c-4.33,0-5.036.011-7.05.1A9.521,9.521,0,0,0,9.3,6.182a5.079,5.079,0,0,0-1.891,1.23A5.057,5.057,0,0,0,6.182,9.3,9.483,9.483,0,0,0,5.6,12.45c-.091,1.932-.1,2.607-.1,7.05,0,4.33.011,5.036.1,7.05a9.528,9.528,0,0,0,.58,3.145A5.443,5.443,0,0,0,9.3,32.816a9.528,9.528,0,0,0,3.15.582c1.932.09,2.607.1,7.051.1,4.33,0,5.036-.012,7.05-.1a9.555,9.555,0,0,0,3.145-.58A5.443,5.443,0,0,0,32.818,29.7a9.523,9.523,0,0,0,.582-3.149c.09-1.932.1-2.607.1-7.051,0-4.33-.012-5.036-.1-7.05A9.555,9.555,0,0,0,32.819,9.3a5.1,5.1,0,0,0-1.23-1.891A5.046,5.046,0,0,0,29.7,6.181a9.491,9.491,0,0,0-3.145-.58C24.619,5.511,23.944,5.5,19.5,5.5Zm0-3.5c4.754,0,5.348.017,7.214.1a12.875,12.875,0,0,1,4.248.814,8.527,8.527,0,0,1,3.1,2.018,8.589,8.589,0,0,1,2.018,3.1,12.945,12.945,0,0,1,.814,4.248c.083,1.867.1,2.46.1,7.214s-.018,5.348-.1,7.214a12.916,12.916,0,0,1-.814,4.248,8.944,8.944,0,0,1-5.119,5.119,12.949,12.949,0,0,1-4.248.814c-1.867.083-2.46.1-7.214.1s-5.348-.017-7.214-.1a12.92,12.92,0,0,1-4.248-.814A8.943,8.943,0,0,1,2.92,30.962a12.912,12.912,0,0,1-.814-4.248C2.023,24.848,2,24.254,2,19.5s.017-5.348.105-7.214A12.866,12.866,0,0,1,2.92,8.037a8.539,8.539,0,0,1,2.018-3.1,8.57,8.57,0,0,1,3.1-2.018A12.9,12.9,0,0,1,12.287,2.1C14.153,2.022,14.747,2,19.5,2Z" transform="translate(5.999 6)" fill="#fff"/>
</svg>
