<svg id="snapchat" xmlns="http://www.w3.org/2000/svg" width="50" height="50" viewBox="0 0 50 50">
  <rect id="Rectangle_14" data-name="Rectangle 14" width="50" height="50" fill="#3b3f40"/>
  <path id="Path_7" data-name="Path 7" d="M25.456,16.3c.014-.169.025-.308.035-.435.02-.257.038-.534.056-.843.056-.978.089-2.059.089-3.237a4.57,4.57,0,0,0-1.6-3.62,6.233,6.233,0,0,0-4.542-1.652,5.97,5.97,0,0,0-4.405,1.557,4.616,4.616,0,0,0-1.679,3.684c0,.915.107,3.5.168,4.593a3.507,3.507,0,0,1-.822,2.458,5.713,5.713,0,0,1,.267.557,4.86,4.86,0,0,1-.266,3.984A14.393,14.393,0,0,1,10.28,27.12a13.986,13.986,0,0,1-1.126,1.128,3.506,3.506,0,0,1,.707.961l.015.03a10.326,10.326,0,0,1,2.78.131,8.626,8.626,0,0,1,3.849,1.862l.027.019.375.267a3.679,3.679,0,0,0,2.583.957,3.921,3.921,0,0,0,2.673-.968l.363-.257a8.78,8.78,0,0,1,3.913-1.887,11.688,11.688,0,0,1,2.735-.13c.026-.05.054-.1.086-.158a3.5,3.5,0,0,1,.646-.835,14.762,14.762,0,0,1-1.081-1.082,16.19,16.19,0,0,1-1.906-2.6,12.287,12.287,0,0,1-.632-1.19,4.771,4.771,0,0,1-.24-4.071,5.186,5.186,0,0,1,.231-.484A3.508,3.508,0,0,1,25.456,16.3Zm-18.1-.178c.736,0,1.054.535,2.139.535a1.324,1.324,0,0,0,.572-.114c-.015-.275-.173-3.485-.173-4.788A8.124,8.124,0,0,1,12.6,5.586,9.425,9.425,0,0,1,19.491,3a9.73,9.73,0,0,1,6.933,2.593,8.077,8.077,0,0,1,2.721,6.188c0,2.728-.174,4.551-.189,4.765a1.035,1.035,0,0,0,.488.115c1.107,0,1.107-.543,2.334-.543A1.672,1.672,0,0,1,33.5,17.56c0,1.09-1.46,1.7-2.334,1.975-.646.206-1.632.511-1.884,1.114a1.456,1.456,0,0,0,.16,1.19c.007.014,2.212,5.057,6.895,5.835a.825.825,0,0,1,.686.847c0,.584-.648,1.083-1.274,1.373a13.951,13.951,0,0,1-3.425.885c-.076.137-.236.851-.412,1.556-.237.951-1.405.643-1.739.572a8.766,8.766,0,0,0-3.15-.084,6.312,6.312,0,0,0-2.448,1.274,7.857,7.857,0,0,1-5.087,1.887,7.633,7.633,0,0,1-5.011-1.887,6.255,6.255,0,0,0-2.448-1.274,8.593,8.593,0,0,0-3.15.1c-.4.036-1.476.429-1.747-.572-.079-.291-.336-1.419-.412-1.571a13.946,13.946,0,0,1-3.424-.9c-.641-.29-1.274-.777-1.274-1.365a.845.845,0,0,1,.686-.847c4.637-.846,6.6-5.27,6.879-5.842a1.5,1.5,0,0,0,.16-1.19c-.252-.6-1.236-.9-1.884-1.114-.183-.061-2.342-.654-2.342-1.96a1.558,1.558,0,0,1,1.02-1.28A2.387,2.387,0,0,1,7.361,16.117Z" transform="translate(5.475 5.509)" fill="#fff"/>
</svg>
