<svg id="telegram" xmlns="http://www.w3.org/2000/svg" width="50" height="50" viewBox="0 0 50 50">
  <rect id="Rectangle_14" data-name="Rectangle 14" width="50" height="50" fill="#3b3f40"/>
  <path id="Path_6" data-name="Path 6" d="M19.5,33.5a14,14,0,1,0-14-14A14,14,0,0,0,19.5,33.5Zm0,3.5A17.5,17.5,0,1,1,37,19.5,17.5,17.5,0,0,1,19.5,37ZM14.059,21.549,9.687,20.184c-.945-.29-.95-.94.212-1.407L26.931,12.2c.988-.4,1.55.107,1.229,1.381l-2.9,13.687c-.2.974-.789,1.206-1.6.756l-4.464-3.3-2.081,2.008a1.211,1.211,0,0,1-.715.428c-.328.044-.6-.053-.794-.6l-1.522-5.024Z" transform="translate(5.999 6)" fill="#fff"/>
</svg>
